<svg width="32" height="32" viewBox="0 0 32 32" fill="none" xmlns="http://www.w3.org/2000/svg">
<rect width="32" height="32" rx="16" fill="#28262D"/>
<path d="M13.425 23.225C13.2666 23.225 13.1083 23.1667 12.9833 23.0417C12.7416 22.8 12.7416 22.4 12.9833 22.1583L18.4166 16.725C18.8166 16.325 18.8166 15.675 18.4166 15.275L12.9833 9.84168C12.7416 9.60002 12.7416 9.20002 12.9833 8.95835C13.225 8.71668 13.625 8.71668 13.8666 8.95835L19.3 14.3917C19.725 14.8167 19.9666 15.3917 19.9666 16C19.9666 16.6083 19.7333 17.1833 19.3 17.6083L13.8666 23.0417C13.7416 23.1583 13.5833 23.225 13.425 23.225Z" fill="#F9F9F9"/>
</svg>
